<svg width="77" height="77" viewBox="0 0 77 77" fill="none" xmlns="http://www.w3.org/2000/svg">
<path d="M39.4699 55.7881C48.9145 55.1939 56.0981 47.1975 55.5148 37.9279C54.9316 28.6582 46.8024 21.6253 37.3578 22.2196C27.9132 22.8138 20.7297 30.8101 21.3129 40.0798C21.8962 49.3495 30.0253 56.3824 39.4699 55.7881Z" fill="#FF9635"/>
<path d="M36.0567 3.22516L36.5018 10.2978" stroke="#FFC700" stroke-width="5" stroke-linecap="round" stroke-linejoin="round"/>
<path d="M40.0618 66.8787L40.5068 73.9513" stroke="#FFC700" stroke-width="5" stroke-linecap="round" stroke-linejoin="round"/>
<path d="M11.9701 15.3916L17.6083 20.3623" stroke="#FFC700" stroke-width="5" stroke-linecap="round" stroke-linejoin="round"/>
<path d="M58.9552 56.8142L64.5934 61.7849" stroke="#FFC700" stroke-width="5" stroke-linecap="round" stroke-linejoin="round"/>
<path d="M2.91864 40.8133L9.99126 40.3683" stroke="#FFC700" stroke-width="5" stroke-linecap="round" stroke-linejoin="round"/>
<path d="M66.5722 36.8082L73.6449 36.3632" stroke="#FFC700" stroke-width="5" stroke-linecap="round" stroke-linejoin="round"/>
<path d="M15.0851 64.8999L20.0558 59.2617" stroke="#FFC700" stroke-width="5" stroke-linecap="round" stroke-linejoin="round"/>
<path d="M56.5077 17.9148L61.4784 12.2766" stroke="#FFC700" stroke-width="5" stroke-linecap="round" stroke-linejoin="round"/>
</svg>
